<?xml version="1.0" encoding="iso-8859-1"?>
<!-- Generator: Adobe Illustrator 19.0.0, SVG Export Plug-In . SVG Version: 6.00 Build 0)  -->
<svg version="1.1" id="Layer_1" xmlns="http://www.w3.org/2000/svg" xmlns:xlink="http://www.w3.org/1999/xlink" x="0px" y="0px"
	 viewBox="0 0 512 512" style="enable-background:new 0 0 512 512;" xml:space="preserve">
<path style="fill:#EDEDED;" d="M512,454.4c0,21.207-17.193,38.4-38.4,38.4H38.4C17.193,492.8,0,475.607,0,454.4V57.6
	c0-21.207,17.193-38.4,38.4-38.4h435.2c21.207,0,38.4,17.193,38.4,38.4V454.4z"/>
<path style="fill:#D8D8DA;" d="M473.6,19.2H256v473.6h217.6c21.207,0,38.4-17.193,38.4-38.4V57.6
	C512,36.393,494.807,19.2,473.6,19.2z"/>
<path style="fill:#88888F;" d="M0,134.4v320c0,21.207,17.193,38.4,38.4,38.4h435.2c21.207,0,38.4-17.193,38.4-38.4v-320H0z"/>
<path style="fill:#797781;" d="M256,134.4v358.4h217.6c21.207,0,38.4-17.193,38.4-38.4v-320H256z"/>
<rect x="256" y="57.6" style="fill:#C6C5CA;" width="217.6" height="38.4"/>
<rect x="76.8" y="185.6" style="fill:#95D5A7;" width="179.2" height="38.4"/>
<rect x="76.8" y="403.2" style="fill:#E07188;" width="179.2" height="38.4"/>
<g>
	<rect x="166.4" y="330.662" style="fill:#F8F8F9;" width="268.8" height="38.4"/>
	<rect x="166.4" y="258.138" style="fill:#F8F8F9;" width="268.8" height="38.4"/>
</g>
<g>
	<rect x="256" y="330.662" style="fill:#EDEDED;" width="179.2" height="38.4"/>
	<rect x="256" y="258.138" style="fill:#EDEDED;" width="179.2" height="38.4"/>
</g>
<circle style="fill:#E07188;" cx="57.6" cy="76.8" r="25.6"/>
<g>
</g>
<g>
</g>
<g>
</g>
<g>
</g>
<g>
</g>
<g>
</g>
<g>
</g>
<g>
</g>
<g>
</g>
<g>
</g>
<g>
</g>
<g>
</g>
<g>
</g>
<g>
</g>
<g>
</g>
</svg>
